<svg xmlns="http://www.w3.org/2000/svg" width="197.886" height="30.767" viewBox="0 0 197.886 30.767">
  <g id="Group_21233" data-name="Group 21233" transform="translate(-322.002 -282.254)">
    <g id="Group_21231" data-name="Group 21231">
      <g id="Group_21230" data-name="Group 21230">
        <g id="Group_21228" data-name="Group 21228">
          <path id="Path_21172" data-name="Path 21172" d="M322.415,312.855V302.69h4.506a6.012,6.012,0,0,1,2.067.274,2.259,2.259,0,0,1,1.13.967,2.885,2.885,0,0,1,.423,1.533,2.551,2.551,0,0,1-.7,1.823,3.536,3.536,0,0,1-2.162.943,3.458,3.458,0,0,1,.81.506,6.991,6.991,0,0,1,1.117,1.352l1.768,2.767h-1.692l-1.345-2.115q-.59-.916-.971-1.4a3.048,3.048,0,0,0-.683-.679,1.969,1.969,0,0,0-.613-.27,4.05,4.05,0,0,0-.749-.05h-1.56v4.515Zm1.345-5.679h2.891a4.306,4.306,0,0,0,1.442-.191,1.531,1.531,0,0,0,.791-.61,1.651,1.651,0,0,0,.27-.911,1.513,1.513,0,0,0-.523-1.186,2.455,2.455,0,0,0-1.654-.465H323.76Z" fill="#464749"/>
          <path id="Path_21173" data-name="Path 21173" d="M337.53,310.483l1.29.16a3.156,3.156,0,0,1-1.13,1.754,3.4,3.4,0,0,1-2.109.624,3.37,3.37,0,0,1-2.562-.995,3.885,3.885,0,0,1-.946-2.79,4.068,4.068,0,0,1,.957-2.885,3.239,3.239,0,0,1,2.482-1.026,3.148,3.148,0,0,1,2.413,1,4,4,0,0,1,.936,2.829c0,.074,0,.185-.007.333h-5.491a2.83,2.83,0,0,0,.686,1.858,2.043,2.043,0,0,0,1.539.645,1.907,1.907,0,0,0,1.172-.361,2.4,2.4,0,0,0,.77-1.151m-4.1-2.017h4.111a2.5,2.5,0,0,0-.471-1.394,1.914,1.914,0,0,0-1.546-.721,1.98,1.98,0,0,0-1.445.576,2.273,2.273,0,0,0-.649,1.539" fill="#464749"/>
          <path id="Path_21174" data-name="Path 21174" d="M345.191,311.947a4.647,4.647,0,0,1-1.334.831,3.858,3.858,0,0,1-1.377.243,2.674,2.674,0,0,1-1.865-.593,1.954,1.954,0,0,1-.651-1.515,2.01,2.01,0,0,1,.245-.987,2.05,2.05,0,0,1,.646-.719,3.046,3.046,0,0,1,.9-.408,8.816,8.816,0,0,1,1.11-.188,11.424,11.424,0,0,0,2.225-.43c.005-.171.008-.279.008-.326a1.375,1.375,0,0,0-.355-1.075,2.09,2.09,0,0,0-1.421-.422,2.2,2.2,0,0,0-1.3.308,1.894,1.894,0,0,0-.62,1.092l-1.22-.166a3.023,3.023,0,0,1,.547-1.266,2.4,2.4,0,0,1,1.1-.741,4.894,4.894,0,0,1,1.67-.26,4.45,4.45,0,0,1,1.533.221,2.045,2.045,0,0,1,.867.559,1.959,1.959,0,0,1,.388.849,7.11,7.11,0,0,1,.062,1.151v1.664a17.7,17.7,0,0,0,.08,2.2,2.766,2.766,0,0,0,.315.883h-1.3a2.625,2.625,0,0,1-.25-.907m-.1-2.788a9.126,9.126,0,0,1-2.038.471,4.748,4.748,0,0,0-1.089.25,1.089,1.089,0,0,0-.492.406,1.1,1.1,0,0,0,.205,1.424,1.623,1.623,0,0,0,1.105.333,2.576,2.576,0,0,0,1.283-.315,1.95,1.95,0,0,0,.825-.863,3.019,3.019,0,0,0,.2-1.248Z" fill="#464749"/>
          <rect id="Rectangle_4871" data-name="Rectangle 4871" width="1.248" height="10.165" transform="translate(348.256 302.69)" fill="#464749"/>
          <path id="Path_21175" data-name="Path 21175" d="M355.571,312.855V302.69h7.349v1.2h-6V307h5.623V308.2h-5.623v3.46h6.241v1.2Z" fill="#464749"/>
          <path id="Path_21176" data-name="Path 21176" d="M364.356,310.657l1.234-.2a1.722,1.722,0,0,0,.579,1.138,2.021,2.021,0,0,0,1.328.395,1.95,1.95,0,0,0,1.275-.35,1.048,1.048,0,0,0,.417-.822.757.757,0,0,0-.368-.665,5.4,5.4,0,0,0-1.276-.423,11.613,11.613,0,0,1-1.9-.6,1.817,1.817,0,0,1-1.078-1.688,1.905,1.905,0,0,1,.225-.913,2.022,2.022,0,0,1,.614-.7,2.559,2.559,0,0,1,.794-.364,3.785,3.785,0,0,1,1.078-.149,4.248,4.248,0,0,1,1.522.25,2.06,2.06,0,0,1,.967.676,2.639,2.639,0,0,1,.43,1.14l-1.22.167a1.342,1.342,0,0,0-.482-.889,1.774,1.774,0,0,0-1.127-.318,2.05,2.05,0,0,0-1.228.284.831.831,0,0,0-.367.666.689.689,0,0,0,.153.437,1.089,1.089,0,0,0,.478.332q.188.07,1.1.32a15.354,15.354,0,0,1,1.848.578,1.884,1.884,0,0,1,.821.656,1.831,1.831,0,0,1,.3,1.067,2.1,2.1,0,0,1-.364,1.176,2.344,2.344,0,0,1-1.051.852,3.8,3.8,0,0,1-1.552.3,3.465,3.465,0,0,1-2.188-.6,2.769,2.769,0,0,1-.96-1.768" fill="#464749"/>
          <path id="Path_21177" data-name="Path 21177" d="M374.679,311.738l.181,1.1a4.7,4.7,0,0,1-.944.11,2.136,2.136,0,0,1-1.053-.214,1.211,1.211,0,0,1-.527-.566,4.451,4.451,0,0,1-.153-1.473v-4.236h-.915v-.971h.915v-1.823l1.242-.749v2.572h1.254v.971h-1.254v4.306a2.143,2.143,0,0,0,.066.686.518.518,0,0,0,.214.243.833.833,0,0,0,.427.09,3.95,3.95,0,0,0,.547-.049" fill="#464749"/>
          <path id="Path_21178" data-name="Path 21178" d="M380.7,311.947a4.646,4.646,0,0,1-1.334.831,3.858,3.858,0,0,1-1.377.243,2.674,2.674,0,0,1-1.865-.593,1.954,1.954,0,0,1-.651-1.515,2.009,2.009,0,0,1,.245-.987,2.048,2.048,0,0,1,.645-.719,3.063,3.063,0,0,1,.9-.408,8.817,8.817,0,0,1,1.11-.188,11.424,11.424,0,0,0,2.225-.43c0-.171.007-.279.007-.326a1.378,1.378,0,0,0-.354-1.075,2.09,2.09,0,0,0-1.421-.422,2.2,2.2,0,0,0-1.3.308,1.894,1.894,0,0,0-.62,1.092l-1.22-.166a3.024,3.024,0,0,1,.547-1.266,2.4,2.4,0,0,1,1.1-.741,4.894,4.894,0,0,1,1.67-.26,4.45,4.45,0,0,1,1.533.221,2.046,2.046,0,0,1,.867.559,1.971,1.971,0,0,1,.388.849,7.11,7.11,0,0,1,.062,1.151v1.664a17.7,17.7,0,0,0,.08,2.2,2.766,2.766,0,0,0,.315.883h-1.3a2.626,2.626,0,0,1-.25-.907m-.1-2.788a9.14,9.14,0,0,1-2.038.471,4.748,4.748,0,0,0-1.089.25,1.083,1.083,0,0,0-.492.406,1.1,1.1,0,0,0,.2,1.424,1.626,1.626,0,0,0,1.106.333,2.576,2.576,0,0,0,1.283-.315,1.95,1.95,0,0,0,.825-.863,3.019,3.019,0,0,0,.2-1.248Z" fill="#464749"/>
          <path id="Path_21179" data-name="Path 21179" d="M386.522,311.738l.18,1.1a4.691,4.691,0,0,1-.943.11,2.14,2.14,0,0,1-1.054-.214,1.2,1.2,0,0,1-.526-.566,4.451,4.451,0,0,1-.153-1.473v-4.236h-.916v-.971h.916v-1.823l1.241-.749v2.572h1.255v.971h-1.255v4.306a2.173,2.173,0,0,0,.066.686.521.521,0,0,0,.215.243.828.828,0,0,0,.426.09,3.963,3.963,0,0,0,.548-.049" fill="#464749"/>
          <path id="Path_21180" data-name="Path 21180" d="M392.783,310.483l1.29.16a3.151,3.151,0,0,1-1.13,1.754,3.829,3.829,0,0,1-4.67-.371,3.886,3.886,0,0,1-.947-2.79,4.068,4.068,0,0,1,.957-2.885,3.242,3.242,0,0,1,2.483-1.026,3.148,3.148,0,0,1,2.413,1,4,4,0,0,1,.936,2.829c0,.074,0,.185-.007.333h-5.491a2.819,2.819,0,0,0,.686,1.858,2.041,2.041,0,0,0,1.539.645,1.907,1.907,0,0,0,1.172-.361,2.391,2.391,0,0,0,.769-1.151m-4.1-2.017H392.8a2.5,2.5,0,0,0-.471-1.394,1.915,1.915,0,0,0-1.546-.721,1.982,1.982,0,0,0-1.446.576,2.276,2.276,0,0,0-.648,1.539" fill="#464749"/>
        </g>
        <g id="Group_21229" data-name="Group 21229">
          <path id="Path_21181" data-name="Path 21181" d="M390.882,286.142h3.283v8.581h-3.283Zm0-3.265h3.283v2.239h-3.283Zm-3.952,3.265h3.292v8.322a7.655,7.655,0,0,1-.23,2.257,2.1,2.1,0,0,1-.85,1.072,3.206,3.206,0,0,1-1.775.414,12.285,12.285,0,0,1-2.363-.285l.493-2.391a3.342,3.342,0,0,0,.581.08.742.742,0,0,0,.636-.287,2.052,2.052,0,0,0,.216-1.141Zm0-3.265h3.293v2.262H386.93Zm-6.572,3.265h3.069v1.4a3.431,3.431,0,0,1,.915-1.255,1.928,1.928,0,0,1,1.165-.344,3.46,3.46,0,0,1,1.589.453l-1.014,2.344a2.546,2.546,0,0,0-.919-.243,1.142,1.142,0,0,0-1,.531,5.437,5.437,0,0,0-.51,2.815v2.876h-3.294Zm-6.62,4.306a2.57,2.57,0,0,0,.466,1.7,1.512,1.512,0,0,0,2.327.007,2.665,2.665,0,0,0,.458-1.736,2.547,2.547,0,0,0-.46-1.662,1.433,1.433,0,0,0-1.137-.543,1.49,1.49,0,0,0-1.187.551,2.583,2.583,0,0,0-.467,1.686m-3.29.008a4.3,4.3,0,0,1,1.321-3.236,5.729,5.729,0,0,1,7.46.222,4.682,4.682,0,0,1-.254,6.21,5,5,0,0,1-3.625,1.264,5.08,5.08,0,0,1-3.337-1.05,4.219,4.219,0,0,1-1.565-3.41m-6.182-.008a2.588,2.588,0,0,0,.464,1.7,1.462,1.462,0,0,0,1.168.55,1.445,1.445,0,0,0,1.16-.543,2.653,2.653,0,0,0,.458-1.736,2.559,2.559,0,0,0-.458-1.662,1.433,1.433,0,0,0-1.137-.543,1.491,1.491,0,0,0-1.187.551,2.577,2.577,0,0,0-.468,1.686m-3.29.008a4.3,4.3,0,0,1,1.323-3.236,5.726,5.726,0,0,1,7.458.222,4.68,4.68,0,0,1-.255,6.21,5,5,0,0,1-3.624,1.264,5.081,5.081,0,0,1-3.337-1.05,4.219,4.219,0,0,1-1.565-3.41m-5.759,0a2.258,2.258,0,0,0,.425,1.512,1.37,1.37,0,0,0,1.078.494,1.192,1.192,0,0,0,.961-.473,2.557,2.557,0,0,0,.389-1.605,2.384,2.384,0,0,0-.4-1.531,1.226,1.226,0,0,0-.984-.49,1.323,1.323,0,0,0-1.05.495,2.457,2.457,0,0,0-.415,1.6m-3.291,7.534V286.142H355v1.269a4.066,4.066,0,0,1,1.169-1.083,3.3,3.3,0,0,1,1.587-.381,3.088,3.088,0,0,1,2.661,1.318,5.491,5.491,0,0,1,.936,3.258,4.7,4.7,0,0,1-1.023,3.268,3.348,3.348,0,0,1-2.587,1.125,3.622,3.622,0,0,1-1.384-.256,3.325,3.325,0,0,1-1.118-.771v4.1Zm-3.816-7.341a14.389,14.389,0,0,1-1.409.43,3.219,3.219,0,0,0-1.263.525.84.84,0,0,0-.007,1.241,1.158,1.158,0,0,0,.8.246,2.054,2.054,0,0,0,1.019-.265,1.646,1.646,0,0,0,.67-.652,2.186,2.186,0,0,0,.194-1Zm-2.845-1.729-3.132-.33a3.5,3.5,0,0,1,.509-1.3,2.823,2.823,0,0,1,.965-.82,4,4,0,0,1,1.24-.388,10.127,10.127,0,0,1,1.708-.137,13.65,13.65,0,0,1,2.369.164,3.065,3.065,0,0,1,1.494.692,2.444,2.444,0,0,1,.662,1.029,3.776,3.776,0,0,1,.241,1.273V292.9a4.655,4.655,0,0,0,.077.949,4.056,4.056,0,0,0,.335.877h-3.081a3.193,3.193,0,0,1-.242-.5,3.787,3.787,0,0,1-.112-.546,4.184,4.184,0,0,1-1.282.886,5.307,5.307,0,0,1-2.023.357,3.385,3.385,0,0,1-2.328-.712,2.246,2.246,0,0,1-.793-1.751,2.3,2.3,0,0,1,.572-1.609,3.84,3.84,0,0,1,2.112-.935c1.231-.251,2.03-.423,2.395-.522a11.832,11.832,0,0,0,1.159-.392,1.167,1.167,0,0,0-.246-.85,1.268,1.268,0,0,0-.884-.243,2.291,2.291,0,0,0-1.206.26,1.424,1.424,0,0,0-.509.758M332.8,282.877h3.283v4.363a4.426,4.426,0,0,1,1.328-.993,3.72,3.72,0,0,1,1.567-.3,2.777,2.777,0,0,1,2.109.815,3.556,3.556,0,0,1,.765,2.506v5.455h-3.3V290a1.722,1.722,0,0,0-.3-1.14,1.057,1.057,0,0,0-.837-.338,1.187,1.187,0,0,0-.967.453,2.623,2.623,0,0,0-.371,1.623v4.122H332.8ZM322,290.8l3.475-.22a2.647,2.647,0,0,0,.462,1.3,1.917,1.917,0,0,0,1.61.717,1.789,1.789,0,0,0,1.208-.368,1.062,1.062,0,0,0,.019-1.677,4.666,4.666,0,0,0-1.874-.686,7.936,7.936,0,0,1-3.425-1.437,2.894,2.894,0,0,1-1.031-2.287,3.088,3.088,0,0,1,.528-1.726,3.513,3.513,0,0,1,1.587-1.278,7.443,7.443,0,0,1,2.908-.462,5.921,5.921,0,0,1,3.452.843,3.654,3.654,0,0,1,1.418,2.687l-3.443.2a1.61,1.61,0,0,0-1.788-1.524,1.461,1.461,0,0,0-.964.27.832.832,0,0,0-.319.659.664.664,0,0,0,.263.508,2.96,2.96,0,0,0,1.226.435,15.132,15.132,0,0,1,3.43,1.049,3.586,3.586,0,0,1,1.509,1.313,3.345,3.345,0,0,1,.473,1.754,3.764,3.764,0,0,1-.631,2.1,3.908,3.908,0,0,1-1.759,1.459,7.056,7.056,0,0,1-2.845.5q-3.014,0-4.174-1.164A4.589,4.589,0,0,1,322,290.8" fill="#003e92"/>
          <path id="Path_21182" data-name="Path 21182" d="M448.212,285.929h3.281v8.58h-3.281Zm0-3.266h3.281V284.9h-3.281Zm-3.949,3.266h3.292v8.32a7.633,7.633,0,0,1-.231,2.257,2.107,2.107,0,0,1-.849,1.073,3.2,3.2,0,0,1-1.777.413,12.321,12.321,0,0,1-2.361-.285l.492-2.39a3.288,3.288,0,0,0,.583.08.736.736,0,0,0,.631-.287,2.009,2.009,0,0,0,.22-1.141Zm0-3.266h3.292v2.261h-3.292Zm-9.6,3.266h3.062v1.4a4.526,4.526,0,0,1,1.384-1.223,3.663,3.663,0,0,1,1.707-.37,2.807,2.807,0,0,1,2.136.815,3.543,3.543,0,0,1,.768,2.508v5.455h-3.3v-4.718a1.743,1.743,0,0,0-.3-1.143,1.067,1.067,0,0,0-.841-.337,1.186,1.186,0,0,0-.965.454,2.624,2.624,0,0,0-.371,1.623v4.121H434.66Zm-6.583,4.3a2.583,2.583,0,0,0,.464,1.7,1.51,1.51,0,0,0,2.328.008,2.672,2.672,0,0,0,.461-1.737,2.538,2.538,0,0,0-.463-1.661,1.43,1.43,0,0,0-1.136-.544,1.487,1.487,0,0,0-1.186.553,2.572,2.572,0,0,0-.468,1.683m-3.29.01a4.3,4.3,0,0,1,1.322-3.236,5.719,5.719,0,0,1,7.459.221,4.689,4.689,0,0,1-.254,6.211,5.01,5.01,0,0,1-3.624,1.264,5.078,5.078,0,0,1-3.338-1.053,4.213,4.213,0,0,1-1.565-3.407m-3.442-7.58h3.292v11.846h-3.292Zm-3.956,0h3.292v11.846h-3.292Zm-3.747,7.772q-.676.244-1.408.43a3.264,3.264,0,0,0-1.267.524.846.846,0,0,0-.005,1.242,1.152,1.152,0,0,0,.8.244,2.033,2.033,0,0,0,1.018-.265,1.633,1.633,0,0,0,.671-.65,2.169,2.169,0,0,0,.194-1Zm-2.844-1.729-3.135-.331a3.526,3.526,0,0,1,.511-1.3,2.768,2.768,0,0,1,.963-.818,4.017,4.017,0,0,1,1.241-.39,10,10,0,0,1,1.708-.139,13.372,13.372,0,0,1,2.372.167,3.079,3.079,0,0,1,1.492.692,2.445,2.445,0,0,1,.662,1.03,3.812,3.812,0,0,1,.239,1.273v3.789a4.668,4.668,0,0,0,.078.951,4.2,4.2,0,0,0,.336.876h-3.081a3.045,3.045,0,0,1-.241-.505,4,4,0,0,1-.113-.545,4.24,4.24,0,0,1-1.281.886,5.294,5.294,0,0,1-2.025.358,3.388,3.388,0,0,1-2.327-.712,2.258,2.258,0,0,1-.792-1.752,2.3,2.3,0,0,1,.569-1.609,3.854,3.854,0,0,1,2.112-.937c1.234-.249,2.032-.421,2.4-.522a11.125,11.125,0,0,0,1.157-.391,1.158,1.158,0,0,0-.248-.849,1.272,1.272,0,0,0-.881-.242,2.252,2.252,0,0,0-1.2.259,1.4,1.4,0,0,0-.51.758m-9.22-.994h.9a2.273,2.273,0,0,0,1.483-.367,1.188,1.188,0,0,0,.426-.94,1.329,1.329,0,0,0-.368-.945,1.919,1.919,0,0,0-1.4-.389h-1.04Zm-3.667-5.049h6.07a4.14,4.14,0,0,1,2.97.947,3.545,3.545,0,0,1,.987,2.688,3.67,3.67,0,0,1-1.076,2.8,4.661,4.661,0,0,1-3.285,1.011h-2v4.395h-3.667Z" fill="#0079c7"/>
        </g>
      </g>
    </g>
    <g id="Group_21232" data-name="Group 21232">
      <rect id="Rectangle_4872" data-name="Rectangle 4872" width="3.037" height="3.037" transform="translate(505.674 287.335)" fill="#f16112"/>
      <path id="Path_21183" data-name="Path 21183" d="M499.332,291.4v-4.07H496.3v12.022a7.712,7.712,0,0,0,.206,1.84,3.62,3.62,0,0,0,.682,1.428,3.078,3.078,0,0,0,1.248.913,4.532,4.532,0,0,0,1.779.318,6.32,6.32,0,0,0,2.7-.537,6.5,6.5,0,0,0,2.007-1.441l-1.8-1.955a3.738,3.738,0,0,1-1.261.939,2.384,2.384,0,0,1-1.534.293c-.835-.188-.991-.967-.991-2v-5.275h6.343v9.6h3.036V291.4Z" fill="#f16112"/>
      <path id="Path_21184" data-name="Path 21184" d="M518.794,297.458a4.591,4.591,0,0,0-1.261-.772,9.748,9.748,0,0,0-1.659-.514,13.128,13.128,0,0,1-2.2-.682q-.708-.321-.708-.888a.958.958,0,0,1,.425-.785,2.6,2.6,0,0,1,1.505-.321,5.4,5.4,0,0,1,1.878.3,5.965,5.965,0,0,1,1.034.487l1.817-1.971a6.482,6.482,0,0,0-2.014-1,9.618,9.618,0,0,0-2.715-.334,6.4,6.4,0,0,0-1.788.257,5.661,5.661,0,0,0-1.6.734,3.866,3.866,0,0,0-1.145,1.183,2.994,2.994,0,0,0-.437,1.609,2.9,2.9,0,0,0,.373,1.505,3.815,3.815,0,0,0,.952,1.081,4.861,4.861,0,0,0,1.248.707,11,11,0,0,0,1.287.412,16.125,16.125,0,0,1,1.6.437,4.937,4.937,0,0,1,.926.412.948.948,0,0,1,.541.9.875.875,0,0,1-.592.849,3.989,3.989,0,0,1-1.57.257,4.9,4.9,0,0,1-1.968-.373,4.545,4.545,0,0,1-1.429-.939l-1.827,1.981a5.109,5.109,0,0,0,2.188,1.4,9.261,9.261,0,0,0,3.062.476,7.148,7.148,0,0,0,1.994-.271,5.569,5.569,0,0,0,1.647-.759,3.7,3.7,0,0,0,1.119-1.2,3.085,3.085,0,0,0,.412-1.583,3.651,3.651,0,0,0-.283-1.505A3.174,3.174,0,0,0,518.794,297.458Z" fill="#f16112"/>
      <path id="Path_21185" data-name="Path 21185" d="M492.821,300.862a3.852,3.852,0,0,1-1.647.348,3.157,3.157,0,0,1-2.586-1.21,3.694,3.694,0,0,1-.631-1.209,4.622,4.622,0,0,1-.206-1.364,4.964,4.964,0,0,1,.206-1.415,3.381,3.381,0,0,1,.631-1.21,3.248,3.248,0,0,1,1.068-.836,3.357,3.357,0,0,1,1.518-.322,3.634,3.634,0,0,1,1.6.335,3.711,3.711,0,0,1,.991.7l1.857-2.014a6.3,6.3,0,0,0-1.767-1.142,7.042,7.042,0,0,0-5.314-.013,6.19,6.19,0,0,0-3.371,3.436,6.533,6.533,0,0,0-.476,2.483,7.513,7.513,0,0,0,.438,2.625,5.708,5.708,0,0,0,1.261,2.032,5.529,5.529,0,0,0,2.033,1.313,7.67,7.67,0,0,0,2.753.463,6.32,6.32,0,0,0,2.7-.541,6.5,6.5,0,0,0,2.007-1.441l-1.8-1.955A3.738,3.738,0,0,1,492.821,300.862Z" fill="#f16112"/>
      <path id="Path_21186" data-name="Path 21186" d="M483.377,293.606a3.94,3.94,0,0,0-1.029-1.39,4.83,4.83,0,0,0-1.609-.9,6.455,6.455,0,0,0-2.1-.321,11.154,11.154,0,0,0-1.891.141,8.881,8.881,0,0,0-1.428.361,6.308,6.308,0,0,0-1.081.488q-.459.268-.817.524l1.714,1.859a9.939,9.939,0,0,1,1.033-.517,5.258,5.258,0,0,1,2.058-.334,3.164,3.164,0,0,1,1.879.514,1.647,1.647,0,0,1,.72,1.415v.284l-.952-.052q-.411-.025-.849-.039c-.292-.008-.557-.012-.8-.012a7.744,7.744,0,0,0-2.161.283,4.79,4.79,0,0,0-1.673.836,3.811,3.811,0,0,0-1.08,1.364,4.219,4.219,0,0,0-.387,1.84,3.859,3.859,0,0,0,.374,1.749,3.532,3.532,0,0,0,.978,1.223,4.166,4.166,0,0,0,1.338.707,4.869,4.869,0,0,0,1.479.232,5.291,5.291,0,0,0,2.239-.463,4.163,4.163,0,0,0,1.492-1.055l.078,1.132h2.83v-8.106A4.292,4.292,0,0,0,483.377,293.606Zm-2.548,5.6a1.684,1.684,0,0,1-.244.875,2.651,2.651,0,0,1-.63.721,3.131,3.131,0,0,1-1.93.669,2.6,2.6,0,0,1-1.635-.438,1.456,1.456,0,0,1-.553-1.209,1.8,1.8,0,0,1,.592-1.325,2.911,2.911,0,0,1,2.059-.579q.282,0,.682.013t.759.038c.291.018.592.035.9.052Z" fill="#f16112"/>
    </g>
    <line id="Line_363" data-name="Line 363" y2="30.356" transform="translate(462.002 282.254)" fill="none" stroke="#95989b" stroke-miterlimit="10" stroke-width="1"/>
  </g>
</svg>
