<svg xmlns="http://www.w3.org/2000/svg" width="296.441" height="78.488" viewBox="0 0 296.441 78.488"><g transform="translate(-302.005 -243.633)"><g transform="translate(29.277 -142.402)"><path d="M385.528,451.078h-2.534v-7.936l-3.141,6.922h-2.678l-3.142-6.862v7.876H371.5V440.567h3.714l3.3,7.1,3.3-7.1h3.714Z" fill="#381a2d"/><path d="M396.151,446.934v4.144h-2.533v-4.152l-4.894-6.359H391.7l3.2,4.46,3.2-4.46h2.888Z" fill="#381a2d"/><path d="M412.52,444.8h6.119v-4.234h2.534v10.511h-2.534v-4.325H412.52v4.325h-2.533v-10.51h2.533Z" fill="#381a2d"/><path d="M438.507,445.822c0,3.139-2.769,5.451-6.683,5.451s-6.672-2.312-6.672-5.451,2.759-5.45,6.672-5.45S438.507,442.684,438.507,445.822Zm-10.714,0c0,2.042,1.7,3.439,4.031,3.439s4.032-1.4,4.032-3.439-1.689-3.438-4.032-3.438S427.793,443.78,427.793,445.822Z" fill="#381a2d"/><path d="M456.512,451.078h-2.533v-7.936l-3.141,6.922h-2.679l-3.141-6.862v7.876h-2.533V440.567H446.2l3.3,7.1,3.3-7.1h3.713Z" fill="#381a2d"/><path d="M470.593,451.078h-9.5V440.567h9.424v1.922H463.63v2.328h6.57v1.921h-6.57v2.418h6.963Z" fill="#381a2d"/><path d="M477.479,448.7l-1.272,4.475h-2l.609-4.475Z" fill="#381a2d"/><path d="M501.669,451.078h-2.534v-7.936l-3.141,6.922h-2.678l-3.141-6.862v7.876h-2.534V440.567h3.714l3.3,7.1,3.3-7.1h3.714Z" fill="#381a2d"/><path d="M512.291,446.934v4.144h-2.532v-4.152l-4.894-6.359h2.978l3.2,4.46,3.2-4.46h2.887Z" fill="#381a2d"/><path d="M535.38,451.078h-9.252V440.567h2.533v8.551h6.719Z" fill="#381a2d"/><path d="M541.348,451.078h-2.533V440.567h2.533Z" fill="#381a2d"/><path d="M554.845,446.821h-6.374v4.257h-2.533V440.567h9.334v1.93h-6.8v2.395h6.374Z" fill="#381a2d"/><path d="M568.775,451.078h-9.5V440.567H568.7v1.922h-6.891v2.328h6.573v1.921h-6.573v2.418h6.963Z" fill="#381a2d"/><path d="M399.806,419.009V403.416L390,419.009h-4.569l-9.556-15.593v15.593H371.5V397.378h5.651l10.69,17.311,10.746-17.311h5.6v21.631Z" fill="#381a2d"/><path d="M415.73,419.009V397.378h4.626v21.631Z" fill="#381a2d"/><path d="M463.949,419.009h-5.567L444.34,397.378h5.069l11.826,18.114,12.214-18.114h4.514Z" fill="#381a2d"/><path d="M485.718,419.009V397.378h4.625v21.631Z" fill="#381a2d"/><path d="M517.9,419.009H501.892V397.378h15.953c6.426,0,10.026,1.994,11.6,5.373a12.745,12.745,0,0,1,1,5.207,13.8,13.8,0,0,1-1,5.4C527.871,416.9,524.215,419.009,517.9,419.009Zm7.949-10.857a8.364,8.364,0,0,0-.692-3.518c-1.108-2.243-3.6-3.406-7.894-3.406H506.379v13.9h10.58c4.542,0,7.09-1.135,8.226-3.351A8.411,8.411,0,0,0,525.849,408.152Z" fill="#381a2d"/><path d="M540.445,419.009H535.6L550,397.378h5.1l14.069,21.631h-5.013l-3.24-4.82H543.741Zm13.239-16.119-1.275-2.133-1.3,2.133-5.068,7.395h12.6Z" fill="#381a2d"/></g><g transform="translate(29.277 -142.402)"><path d="M311.3,424.607l-38.572-38.572v78.488h9.225V410.8L311.3,440.152,340.642,410.8v53.718h9.225V386.035Z" fill="#381a2d"/><path d="M311.3,452.477l-23.883-23.788V440.94L311.3,464.523l23.74-23.788V428.689Z" fill="#e82721"/><path d="M311.3,412.322l-26.287-26.287h52.535Z" fill="#ffb42a"/></g></g></svg>