<?xml version="1.0" encoding="utf-8"?>
<!-- Generator: Adobe Illustrator 23.0.0, SVG Export Plug-In . SVG Version: 6.00 Build 0)  -->
<svg version="1.1" id="Layer_1" xmlns="http://www.w3.org/2000/svg" xmlns:xlink="http://www.w3.org/1999/xlink" x="0px" y="0px"
	 viewBox="0 0 300 52" style="enable-background:new 0 0 300 52;" xml:space="preserve">
<style type="text/css">
	.st0{fill:#58595B;}
	.st1{fill:#034EA2;}
	.st2{fill:#0089CF;}
	.st3{fill-rule:evenodd;clip-rule:evenodd;fill:#BEBDBF;}
	.st4{fill-rule:evenodd;clip-rule:evenodd;fill:#D1D3D4;}
	.st5{fill-rule:evenodd;clip-rule:evenodd;fill:#FFFFFF;}
</style>
<g>
	<path class="st0" d="M87.8,50.62V33.95h7.39c1.49,0,2.62,0.15,3.39,0.45c0.77,0.3,1.39,0.83,1.85,1.59
		c0.46,0.76,0.69,1.6,0.69,2.51c0,1.18-0.38,2.18-1.15,2.99c-0.77,0.81-1.95,1.33-3.55,1.55c0.58,0.28,1.03,0.56,1.33,0.83
		c0.64,0.59,1.25,1.33,1.83,2.22l2.9,4.54h-2.78l-2.21-3.47c-0.64-1-1.17-1.77-1.59-2.3c-0.42-0.53-0.79-0.9-1.12-1.11
		c-0.33-0.21-0.67-0.36-1.01-0.44c-0.25-0.05-0.66-0.08-1.23-0.08H90v7.4H87.8z M90,41.31h4.74c1.01,0,1.8-0.1,2.36-0.31
		c0.57-0.21,1-0.54,1.3-1c0.3-0.46,0.44-0.96,0.44-1.49c0-0.79-0.29-1.44-0.86-1.94c-0.57-0.51-1.48-0.76-2.71-0.76H90V41.31z"/>
	<path class="st0" d="M112.59,46.73l2.12,0.26c-0.33,1.24-0.95,2.2-1.85,2.88c-0.9,0.68-2.06,1.02-3.46,1.02
		c-1.77,0-3.17-0.54-4.2-1.63c-1.03-1.09-1.55-2.61-1.55-4.58c0-2.03,0.52-3.61,1.57-4.73c1.05-1.12,2.4-1.68,4.07-1.68
		c1.62,0,2.93,0.55,3.96,1.65c1.02,1.1,1.53,2.65,1.53,4.64c0,0.12,0,0.3-0.01,0.55h-9c0.07,1.33,0.45,2.34,1.12,3.05
		c0.67,0.71,1.52,1.06,2.52,1.06c0.75,0,1.39-0.2,1.92-0.59C111.86,48.23,112.28,47.6,112.59,46.73 M105.87,43.42h6.74
		c-0.09-1.02-0.35-1.78-0.77-2.29c-0.65-0.79-1.5-1.18-2.54-1.18c-0.94,0-1.73,0.32-2.37,0.95
		C106.29,41.53,105.93,42.37,105.87,43.42"/>
	<path class="st0" d="M125.15,49.13c-0.76,0.64-1.49,1.1-2.19,1.36c-0.7,0.27-1.45,0.4-2.26,0.4c-1.33,0-2.34-0.32-3.06-0.97
		c-0.71-0.65-1.07-1.48-1.07-2.48c0-0.59,0.13-1.13,0.4-1.62c0.27-0.49,0.62-0.88,1.06-1.18c0.44-0.29,0.93-0.52,1.47-0.67
		c0.4-0.11,1.01-0.21,1.82-0.31c1.65-0.2,2.87-0.43,3.65-0.71c0.01-0.28,0.01-0.46,0.01-0.53c0-0.83-0.19-1.42-0.58-1.76
		c-0.52-0.46-1.3-0.69-2.33-0.69c-0.96,0-1.67,0.17-2.13,0.51c-0.46,0.34-0.8,0.94-1.02,1.79l-2-0.27c0.18-0.86,0.48-1.55,0.9-2.08
		c0.42-0.53,1.02-0.93,1.81-1.22c0.79-0.28,1.7-0.43,2.74-0.43c1.03,0,1.87,0.12,2.51,0.36c0.64,0.24,1.12,0.55,1.42,0.92
		c0.3,0.37,0.52,0.83,0.64,1.39c0.07,0.35,0.1,0.98,0.1,1.89v2.73c0,1.9,0.04,3.11,0.13,3.61c0.09,0.5,0.26,0.99,0.52,1.45h-2.14
		C125.35,50.2,125.21,49.7,125.15,49.13 M124.98,44.56c-0.74,0.3-1.86,0.56-3.34,0.77c-0.84,0.12-1.44,0.26-1.78,0.41
		c-0.35,0.15-0.62,0.37-0.81,0.67c-0.19,0.29-0.28,0.62-0.28,0.97c0,0.55,0.21,1,0.62,1.37c0.41,0.36,1.02,0.55,1.81,0.55
		c0.79,0,1.49-0.17,2.1-0.52c0.61-0.34,1.06-0.82,1.35-1.42c0.22-0.46,0.33-1.14,0.33-2.05V44.56z"/>
	<rect x="130.18" y="33.95" class="st0" width="2.05" height="16.67"/>
	<polygon class="st0" points="142.18,50.62 142.18,33.95 154.23,33.95 154.23,35.92 144.38,35.92 144.38,41.02 153.61,41.02 
		153.61,42.98 144.38,42.98 144.38,48.65 154.62,48.65 154.62,50.62 	"/>
	<path class="st0" d="M156.59,47.02l2.02-0.32c0.11,0.81,0.43,1.43,0.95,1.87c0.52,0.43,1.25,0.65,2.18,0.65
		c0.94,0,1.64-0.19,2.09-0.58c0.46-0.38,0.68-0.83,0.68-1.35c0-0.46-0.2-0.83-0.6-1.09c-0.28-0.18-0.98-0.41-2.09-0.69
		c-1.5-0.38-2.54-0.71-3.12-0.98c-0.58-0.28-1.02-0.66-1.32-1.15c-0.3-0.49-0.45-1.03-0.45-1.62c0-0.54,0.12-1.04,0.37-1.5
		c0.25-0.46,0.58-0.84,1.01-1.14c0.32-0.24,0.75-0.43,1.3-0.6c0.55-0.16,1.14-0.25,1.77-0.25c0.95,0,1.78,0.14,2.5,0.41
		c0.72,0.27,1.25,0.64,1.59,1.11c0.34,0.46,0.58,1.09,0.7,1.87l-2,0.27c-0.09-0.62-0.36-1.11-0.79-1.46
		c-0.44-0.35-1.05-0.52-1.85-0.52c-0.94,0-1.61,0.16-2.01,0.47c-0.4,0.31-0.6,0.67-0.6,1.09c0,0.27,0.08,0.5,0.25,0.72
		c0.17,0.22,0.43,0.4,0.78,0.55c0.21,0.08,0.81,0.25,1.81,0.52c1.45,0.39,2.46,0.7,3.03,0.95c0.57,0.25,1.02,0.61,1.35,1.08
		c0.33,0.47,0.49,1.05,0.49,1.75c0,0.68-0.2,1.33-0.6,1.93c-0.4,0.6-0.97,1.07-1.72,1.4c-0.75,0.33-1.6,0.5-2.55,0.5
		c-1.57,0-2.77-0.33-3.59-0.98C157.34,49.27,156.81,48.3,156.59,47.02"/>
	<path class="st0" d="M173.52,48.79l0.3,1.81c-0.58,0.12-1.09,0.18-1.55,0.18c-0.74,0-1.32-0.12-1.73-0.35
		c-0.41-0.23-0.7-0.54-0.86-0.93c-0.17-0.38-0.25-1.19-0.25-2.42v-6.95h-1.5v-1.59h1.5v-2.99l2.04-1.23v4.22h2.06v1.59h-2.06v7.06
		c0,0.58,0.04,0.96,0.11,1.13c0.07,0.17,0.19,0.3,0.35,0.4c0.16,0.1,0.4,0.15,0.7,0.15C172.85,48.87,173.15,48.84,173.52,48.79"/>
	<path class="st0" d="M183.4,49.13c-0.76,0.64-1.49,1.1-2.19,1.36c-0.7,0.27-1.45,0.4-2.26,0.4c-1.33,0-2.35-0.32-3.06-0.97
		c-0.71-0.65-1.07-1.48-1.07-2.48c0-0.59,0.13-1.13,0.4-1.62c0.27-0.49,0.62-0.88,1.06-1.18c0.44-0.29,0.93-0.52,1.47-0.67
		c0.4-0.11,1.01-0.21,1.82-0.31c1.65-0.2,2.87-0.43,3.65-0.71c0.01-0.28,0.01-0.46,0.01-0.53c0-0.83-0.19-1.42-0.58-1.76
		c-0.52-0.46-1.3-0.69-2.33-0.69c-0.96,0-1.67,0.17-2.13,0.51c-0.46,0.34-0.8,0.94-1.02,1.79l-2-0.27c0.18-0.86,0.48-1.55,0.9-2.08
		c0.42-0.53,1.02-0.93,1.81-1.22c0.79-0.28,1.7-0.43,2.74-0.43c1.03,0,1.87,0.12,2.51,0.36c0.64,0.24,1.12,0.55,1.42,0.92
		c0.3,0.37,0.51,0.83,0.64,1.39c0.07,0.35,0.1,0.98,0.1,1.89v2.73c0,1.9,0.04,3.11,0.13,3.61c0.09,0.5,0.26,0.99,0.52,1.45h-2.14
		C183.6,50.2,183.46,49.7,183.4,49.13 M183.23,44.56c-0.74,0.3-1.86,0.56-3.34,0.77c-0.84,0.12-1.44,0.26-1.78,0.41
		c-0.35,0.15-0.62,0.37-0.81,0.67c-0.19,0.29-0.28,0.62-0.28,0.97c0,0.55,0.21,1,0.62,1.37c0.41,0.36,1.02,0.55,1.81,0.55
		c0.79,0,1.49-0.17,2.1-0.52c0.61-0.34,1.06-0.82,1.35-1.42c0.22-0.46,0.33-1.14,0.33-2.05V44.56z"/>
	<path class="st0" d="M192.94,48.79l0.3,1.81c-0.58,0.12-1.09,0.18-1.55,0.18c-0.74,0-1.32-0.12-1.73-0.35
		c-0.41-0.23-0.7-0.54-0.86-0.93c-0.17-0.38-0.25-1.19-0.25-2.42v-6.95h-1.5v-1.59h1.5v-2.99l2.04-1.23v4.22h2.06v1.59h-2.06v7.06
		c0,0.58,0.04,0.96,0.11,1.13c0.07,0.17,0.19,0.3,0.35,0.4c0.16,0.1,0.4,0.15,0.7,0.15C192.27,48.87,192.57,48.84,192.94,48.79"/>
	<path class="st0" d="M203.21,46.73l2.12,0.26c-0.33,1.24-0.95,2.2-1.85,2.88c-0.9,0.68-2.05,1.02-3.46,1.02
		c-1.77,0-3.17-0.54-4.2-1.63c-1.03-1.09-1.55-2.61-1.55-4.58c0-2.03,0.52-3.61,1.57-4.73c1.05-1.12,2.4-1.68,4.07-1.68
		c1.62,0,2.94,0.55,3.96,1.65c1.02,1.1,1.54,2.65,1.54,4.64c0,0.12-0.01,0.3-0.01,0.55h-9c0.07,1.33,0.45,2.34,1.12,3.05
		c0.67,0.71,1.52,1.06,2.52,1.06c0.75,0,1.39-0.2,1.92-0.59C202.48,48.23,202.9,47.6,203.21,46.73 M196.49,43.42h6.74
		c-0.09-1.02-0.35-1.78-0.77-2.29c-0.65-0.79-1.5-1.18-2.54-1.18c-0.94,0-1.73,0.32-2.37,0.95
		C196.91,41.53,196.56,42.37,196.49,43.42"/>
	<path class="st1" d="M200.09,6.81h5.38v14.07h-5.38V6.81z M200.09,1.45h5.38v3.67h-5.38V1.45z M193.61,6.81h5.4v13.65
		c0,1.74-0.12,2.97-0.38,3.7c-0.25,0.72-0.72,1.31-1.4,1.76c-0.68,0.45-1.65,0.68-2.91,0.68c-1.04,0-2.33-0.15-3.88-0.47l0.81-3.92
		c0.43,0.09,0.75,0.13,0.95,0.13c0.46,0,0.8-0.15,1.04-0.47c0.24-0.31,0.35-0.94,0.35-1.87V6.81z M193.61,1.45h5.4v3.71h-5.4V1.45z
		 M182.83,6.81h5.03v2.3c0.49-0.99,0.99-1.68,1.5-2.06c0.52-0.38,1.16-0.56,1.91-0.56c0.8,0,1.66,0.25,2.61,0.74l-1.66,3.84
		c-0.63-0.27-1.14-0.4-1.51-0.4c-0.71,0-1.26,0.3-1.64,0.87c-0.56,0.83-0.84,2.36-0.84,4.62v4.72h-5.4V6.81z M171.97,13.87
		c0,1.26,0.25,2.18,0.76,2.78c0.5,0.6,1.14,0.9,1.91,0.9c0.78,0,1.41-0.3,1.91-0.89c0.5-0.59,0.75-1.54,0.75-2.85
		c0-1.22-0.25-2.13-0.75-2.73c-0.5-0.59-1.12-0.89-1.87-0.89c-0.79,0-1.43,0.3-1.95,0.9C172.23,11.71,171.97,12.64,171.97,13.87
		 M166.58,13.89c0-2.14,0.72-3.92,2.17-5.31c1.45-1.39,3.4-2.09,5.86-2.09c2.81,0,4.94,0.82,6.38,2.45
		c1.16,1.31,1.73,2.94,1.73,4.87c0,2.16-0.72,3.93-2.15,5.32c-1.43,1.38-3.41,2.07-5.94,2.07c-2.26,0-4.08-0.57-5.47-1.72
		C167.43,18.06,166.58,16.2,166.58,13.89 M156.44,13.87c0,1.26,0.25,2.18,0.76,2.78c0.51,0.6,1.14,0.9,1.92,0.9
		c0.77,0,1.41-0.3,1.9-0.89c0.5-0.59,0.75-1.54,0.75-2.85c0-1.22-0.25-2.13-0.75-2.73c-0.5-0.59-1.13-0.89-1.87-0.89
		c-0.79,0-1.43,0.3-1.95,0.9C156.7,11.71,156.44,12.64,156.44,13.87 M151.04,13.89c0-2.14,0.72-3.92,2.17-5.31
		c1.45-1.39,3.4-2.09,5.86-2.09c2.81,0,4.94,0.82,6.37,2.45c1.16,1.31,1.73,2.94,1.73,4.87c0,2.16-0.72,3.93-2.15,5.32
		c-1.43,1.38-3.41,2.07-5.94,2.07c-2.26,0-4.08-0.57-5.47-1.72C151.9,18.06,151.04,16.2,151.04,13.89 M141.6,13.89
		c0,1.11,0.23,1.94,0.7,2.48c0.46,0.54,1.06,0.81,1.77,0.81c0.63,0,1.16-0.26,1.58-0.78c0.43-0.52,0.64-1.4,0.64-2.63
		c0-1.14-0.22-1.98-0.66-2.51c-0.44-0.54-0.98-0.8-1.61-0.8c-0.69,0-1.26,0.27-1.72,0.81C141.82,11.8,141.6,12.68,141.6,13.89
		 M136.2,26.24V6.81h5.04v2.08c0.7-0.88,1.34-1.47,1.92-1.78c0.78-0.42,1.65-0.62,2.6-0.62c1.88,0,3.33,0.72,4.36,2.16
		c1.02,1.44,1.53,3.22,1.53,5.34c0,2.34-0.56,4.12-1.68,5.36c-1.12,1.23-2.54,1.84-4.24,1.84c-0.83,0-1.59-0.14-2.27-0.42
		c-0.68-0.28-1.29-0.7-1.83-1.26v6.73H136.2z M129.94,14.2c-0.74,0.27-1.51,0.5-2.31,0.7c-1.09,0.29-1.78,0.58-2.07,0.86
		c-0.3,0.3-0.45,0.62-0.45,0.99c0,0.43,0.15,0.77,0.44,1.04c0.3,0.27,0.73,0.4,1.3,0.4c0.6,0,1.15-0.15,1.67-0.44
		c0.51-0.3,0.88-0.65,1.1-1.07c0.22-0.42,0.32-0.97,0.32-1.64V14.2z M125.28,11.37l-5.14-0.54c0.19-0.9,0.47-1.61,0.83-2.13
		c0.36-0.51,0.89-0.96,1.58-1.35c0.49-0.27,1.17-0.49,2.03-0.64c0.86-0.15,1.8-0.22,2.8-0.22c1.61,0,2.92,0.09,3.89,0.27
		c0.98,0.18,1.8,0.56,2.45,1.14c0.46,0.4,0.82,0.96,1.08,1.69c0.26,0.73,0.4,1.43,0.4,2.09v6.22c0,0.66,0.04,1.18,0.13,1.56
		c0.08,0.38,0.26,0.85,0.55,1.44h-5.05c-0.2-0.36-0.33-0.64-0.4-0.83c-0.06-0.19-0.12-0.49-0.18-0.9c-0.7,0.68-1.41,1.16-2.1,1.45
		c-0.95,0.39-2.06,0.58-3.32,0.58c-1.68,0-2.95-0.39-3.82-1.17c-0.87-0.77-1.3-1.73-1.3-2.87c0-1.07,0.31-1.95,0.94-2.64
		c0.63-0.69,1.78-1.2,3.46-1.53c2.02-0.41,3.33-0.69,3.93-0.86c0.6-0.17,1.23-0.38,1.9-0.64c0-0.66-0.13-1.13-0.4-1.4
		c-0.28-0.26-0.75-0.4-1.45-0.4c-0.88,0-1.53,0.15-1.98,0.43C125.76,10.35,125.49,10.76,125.28,11.37 M104.83,1.45h5.38v7.16
		c0.73-0.76,1.46-1.3,2.18-1.63c0.72-0.33,1.58-0.49,2.57-0.49c1.46,0,2.61,0.45,3.46,1.34c0.84,0.9,1.25,2.26,1.25,4.11v8.95h-5.4
		v-7.74c0-0.88-0.17-1.5-0.49-1.87c-0.33-0.37-0.78-0.55-1.37-0.55c-0.65,0-1.19,0.25-1.58,0.74c-0.41,0.49-0.61,1.39-0.61,2.66
		v6.76h-5.38V1.45z M87.12,14.46l5.7-0.36c0.12,0.93,0.37,1.63,0.76,2.12c0.61,0.79,1.5,1.18,2.64,1.18c0.85,0,1.51-0.2,1.98-0.6
		c0.46-0.4,0.69-0.87,0.69-1.4c0-0.5-0.22-0.95-0.66-1.35c-0.45-0.4-1.47-0.78-3.07-1.13c-2.63-0.59-4.5-1.38-5.62-2.36
		c-1.13-0.98-1.69-2.23-1.69-3.75c0-1,0.28-1.94,0.87-2.83c0.58-0.89,1.44-1.58,2.6-2.1c1.16-0.51,2.75-0.76,4.77-0.76
		c2.48,0,4.37,0.46,5.66,1.38c1.3,0.92,2.08,2.4,2.33,4.41l-5.65,0.33c-0.15-0.87-0.46-1.51-0.95-1.91C97,4.94,96.33,4.74,95.5,4.74
		c-0.7,0-1.23,0.14-1.58,0.44c-0.35,0.29-0.52,0.66-0.52,1.08c0,0.31,0.14,0.58,0.43,0.83c0.28,0.26,0.95,0.49,2.01,0.71
		c2.62,0.57,4.5,1.14,5.62,1.72c1.14,0.58,1.96,1.29,2.47,2.15c0.51,0.85,0.78,1.82,0.78,2.88c0,1.25-0.35,2.39-1.03,3.44
		c-0.69,1.06-1.65,1.85-2.89,2.39c-1.23,0.54-2.79,0.81-4.67,0.81c-3.3,0-5.58-0.63-6.85-1.91C88.01,18.04,87.29,16.42,87.12,14.46"
		/>
	<path class="st2" d="M294.12,6.46h5.38v14.07h-5.38V6.46z M294.12,1.1h5.38v3.67h-5.38V1.1z M287.64,6.46h5.4v13.65
		c0,1.74-0.13,2.98-0.38,3.7c-0.26,0.72-0.72,1.31-1.39,1.76c-0.68,0.45-1.65,0.68-2.91,0.68c-1.04,0-2.33-0.16-3.87-0.47l0.81-3.92
		c0.43,0.09,0.75,0.13,0.96,0.13c0.45,0,0.8-0.15,1.03-0.47c0.24-0.31,0.36-0.94,0.36-1.87V6.46z M287.64,1.1h5.4v3.71h-5.4V1.1z
		 M271.89,6.46h5.02v2.29c0.75-0.94,1.5-1.6,2.27-2.01c0.77-0.4,1.7-0.61,2.8-0.61c1.49,0,2.66,0.45,3.5,1.34
		c0.84,0.88,1.26,2.26,1.26,4.11v8.95h-5.41v-7.74c0-0.88-0.16-1.51-0.48-1.87c-0.33-0.37-0.79-0.55-1.38-0.55
		c-0.65,0-1.18,0.25-1.58,0.74c-0.41,0.49-0.61,1.38-0.61,2.66v6.76h-5.39V6.46z M261.1,13.52c0,1.26,0.25,2.19,0.76,2.78
		c0.51,0.6,1.15,0.91,1.91,0.91c0.78,0,1.41-0.3,1.91-0.89c0.5-0.6,0.76-1.54,0.76-2.85c0-1.22-0.26-2.13-0.76-2.72
		c-0.5-0.59-1.12-0.89-1.86-0.89c-0.79,0-1.43,0.3-1.95,0.91C261.35,11.36,261.1,12.29,261.1,13.52 M255.7,13.54
		c0-2.14,0.72-3.92,2.17-5.31c1.45-1.39,3.4-2.09,5.86-2.09c2.81,0,4.94,0.82,6.38,2.46c1.16,1.31,1.73,2.94,1.73,4.86
		c0,2.17-0.72,3.94-2.15,5.32c-1.43,1.38-3.41,2.07-5.94,2.07c-2.26,0-4.08-0.58-5.47-1.73C256.56,17.71,255.7,15.84,255.7,13.54
		 M250.05,1.1h5.4v19.43h-5.4V1.1z M243.57,1.1h5.4v19.43h-5.4V1.1z M237.42,13.85c-0.74,0.27-1.51,0.5-2.31,0.7
		c-1.09,0.29-1.79,0.58-2.08,0.86c-0.3,0.29-0.45,0.63-0.45,1c0,0.43,0.15,0.77,0.44,1.04c0.3,0.27,0.73,0.4,1.31,0.4
		c0.6,0,1.15-0.14,1.67-0.44c0.52-0.29,0.88-0.65,1.1-1.07c0.22-0.42,0.32-0.97,0.32-1.64V13.85z M232.76,11.02l-5.14-0.54
		c0.19-0.9,0.47-1.61,0.84-2.13c0.37-0.52,0.88-0.97,1.58-1.34c0.49-0.28,1.18-0.49,2.03-0.64c0.86-0.15,1.8-0.23,2.8-0.23
		c1.62,0,2.91,0.09,3.89,0.27c0.97,0.18,1.8,0.56,2.45,1.14c0.46,0.4,0.82,0.96,1.09,1.69c0.26,0.73,0.39,1.42,0.39,2.09v6.21
		c0,0.66,0.05,1.18,0.13,1.56c0.08,0.37,0.27,0.85,0.55,1.44h-5.05c-0.2-0.36-0.33-0.64-0.4-0.83c-0.06-0.19-0.12-0.49-0.18-0.89
		c-0.71,0.68-1.41,1.16-2.1,1.45c-0.95,0.39-2.06,0.59-3.32,0.59c-1.67,0-2.95-0.39-3.82-1.17c-0.87-0.78-1.3-1.73-1.3-2.87
		c0-1.07,0.31-1.95,0.93-2.64c0.63-0.69,1.78-1.2,3.46-1.54c2.02-0.41,3.33-0.69,3.93-0.86c0.59-0.16,1.23-0.38,1.9-0.64
		c0-0.66-0.13-1.13-0.41-1.39c-0.28-0.26-0.75-0.4-1.45-0.4c-0.88,0-1.54,0.14-1.98,0.43C233.24,9.99,232.97,10.41,232.76,11.02
		 M217.63,9.39h1.47c1.16,0,1.97-0.19,2.43-0.6c0.46-0.4,0.7-0.92,0.7-1.54c0-0.61-0.2-1.13-0.6-1.55
		c-0.41-0.43-1.17-0.64-2.29-0.64h-1.71V9.39z M211.62,1.1h9.96c2.16,0,3.79,0.51,4.87,1.55c1.08,1.03,1.62,2.5,1.62,4.41
		c0,1.96-0.59,3.5-1.76,4.6c-1.18,1.1-2.97,1.66-5.39,1.66h-3.28v7.21h-6.01V1.1z"/>
	<path class="st3" d="M1.99,38.3l17.56,0.87c0,0,9.08-2.76,9.2-3.38c0.13-0.63-0.12-9.2-0.12-9.2L1.99,38.3z"/>
	<polygon class="st4" points="0.53,51.58 17.03,51.58 34.08,46.65 39.22,49.43 46.68,47.33 46.64,39.4 70.52,38.31 45.22,28.25 
		45.53,27.43 67.54,32.19 68.63,25.36 38.26,1.27 36.96,1.86 35.75,1.28 11.93,21.33 7.26,25.26 7.19,31.94 17.76,26.95 
		27.73,29.65 32.26,39.22 31.45,40.01 3.04,47.86 	"/>
	<polygon class="st5" points="67.4,25.33 55.55,25.62 67.92,31.1 	"/>
	<polygon class="st5" points="7.47,25.45 18.9,25.72 6.94,31.23 	"/>
	<path class="st2" d="M64.89,26.27c-0.01-0.54-0.18-0.96-0.52-1.27c-0.39-0.35-1.38-0.81-1.9-1.07L37.04,10l0-9.58
		c10.47,5.66,23.8,12.82,32.96,17.85c1.83,0.87,3.13,3.01,3.23,5.99c0.1,3.04,0.16,6.88,0.01,9.91c-0.1,1.97-0.82,3.34-1.78,3.91
		c-0.76,0.29-1.49,0.6-4.14-0.39l-19.44-7.52c-1.32-0.51-1.18,0.82-1.21,1.42l0.02,15.75l-6.89-4.28c-0.77-0.48-1.56-1.06-1.54-3.13
		v-0.8l-0.01-16.57c0.1-4.07,2.2-4.26,6.11-2.73l19.45,8.52c0.72,0.26,1.01-0.28,1.06-0.65C64.9,26.85,64.89,26.88,64.89,26.27"/>
	<path class="st1" d="M0.5,42.64l24.75-8.75c0.55-0.19,1.04-0.39,1.58-0.61c0.43-0.18,0.76-0.36,0.76-0.86l0.01-1.73
		c0.05-0.85-0.38-1.14-1.49-0.68L5.75,37.95c-1.83,0.63-3.15,0.6-3.89,0.35c-1.13-0.38-1.26-1.73-1.26-4.07
		c0-2.44-0.04-5.41-0.01-8.19c0.01-1.43,0.21-2.92,0.82-4.14c0.54-1.07,1.55-1.91,2.61-2.65c0.7-0.49,1.43-0.94,2.05-1.39
		L37.03,0.42l0.13,9.64L10.28,25.17c-0.63,0.35-1.25,0.57-1.26,1.19C9.02,27,9.02,27.38,9.02,28.01c0,0.3,0.23,0.68,1.02,0.4
		l19.72-8.91c1.75-0.78,6.37-1.67,6.14,4.42l-0.01,11.79c-0.16,1.7,0.39,4.68-3.76,6.19l-31.6,9.68L0.5,42.64z"/>
	<path class="st1" d="M74.32,15.56h0.47c0.23,0,0.38-0.03,0.46-0.1c0.08-0.07,0.13-0.16,0.13-0.27c0-0.07-0.02-0.14-0.06-0.19
		c-0.04-0.06-0.1-0.1-0.17-0.13c-0.07-0.03-0.2-0.04-0.39-0.04h-0.45V15.56z M73.93,16.92v-2.42h0.83c0.28,0,0.49,0.02,0.62,0.07
		c0.13,0.05,0.23,0.12,0.3,0.23c0.07,0.11,0.11,0.23,0.11,0.35c0,0.17-0.06,0.33-0.19,0.46c-0.13,0.13-0.29,0.2-0.5,0.22
		c0.09,0.03,0.15,0.08,0.2,0.13c0.1,0.1,0.22,0.25,0.36,0.48l0.29,0.47h-0.47l-0.21-0.38c-0.17-0.3-0.3-0.49-0.41-0.56
		c-0.07-0.05-0.18-0.08-0.31-0.08h-0.23v1.02H73.93z M74.91,13.8c-0.31,0-0.62,0.08-0.92,0.24c-0.3,0.16-0.53,0.39-0.7,0.69
		c-0.17,0.3-0.25,0.61-0.25,0.94c0,0.32,0.08,0.63,0.25,0.93c0.17,0.3,0.4,0.53,0.69,0.69c0.3,0.17,0.61,0.25,0.93,0.25
		c0.32,0,0.63-0.08,0.93-0.25c0.3-0.17,0.53-0.4,0.69-0.69c0.16-0.3,0.24-0.61,0.24-0.93c0-0.32-0.08-0.64-0.25-0.94
		c-0.17-0.3-0.4-0.53-0.7-0.69C75.53,13.89,75.23,13.8,74.91,13.8 M74.91,13.44c0.38,0,0.74,0.1,1.1,0.29
		c0.36,0.19,0.64,0.47,0.84,0.83c0.2,0.36,0.3,0.74,0.3,1.13c0,0.39-0.1,0.76-0.3,1.12c-0.2,0.36-0.47,0.64-0.83,0.83
		c-0.36,0.2-0.73,0.3-1.11,0.3c-0.39,0-0.76-0.1-1.11-0.3c-0.36-0.2-0.63-0.47-0.83-0.83c-0.2-0.36-0.3-0.73-0.3-1.12
		c0-0.39,0.1-0.77,0.3-1.13c0.2-0.36,0.48-0.64,0.84-0.83C74.17,13.53,74.54,13.44,74.91,13.44"/>
</g>
</svg>
